<svg xmlns="http://www.w3.org/2000/svg" width="720" height="528" viewBox="-10 -1 720 528" enable-background="new -10 -1 720 528"><path fill="#CBCACA" d="M286.544 415.814c.01 0-8.3 80.285-9.088 86.455-.737 5.766-2.694 9.944-6.362 11.83-3.266 1.678-16.062 6.278-18.177 7.28-2.322 1.1-.874 2.592-.322 2.63 5.233.36 75.304 2.146 99.39 1.92s86.527-.152 90.392-.607c3.862-.454 8.562-.655 7.797-3.875-.24-1.016-13.243-3.11-17.3-7.35-3.582-3.74-4.27-4.57-5.48-11.59-1.737-10.062-9.97-85.784-9.97-85.784l-130.88-.91z"/><path fill="#AEADAD" d="M285.812 423.625l-1.562 15h135.438l-1.5-14.938-132.376-.062z"/><path fill="#151515" d="M689.817-1H10.182C.14-1-8 7.15-8 17.2v388.6C-8 415.852.14 424 10.182 424h679.636C699.86 424 708 415.852 708 405.8V17.2C708 7.15 699.86-1 689.817-1zM678 389H22V29h656v360z"/><path fill="#E5E5E4" d="M251.72 523.27l1.816 2.73H447.41l2.512-2.708-198.203-.022z"/></svg>