<svg xmlns="http://www.w3.org/2000/svg" width="720" height="576" viewBox="0 0 720 576"><path fill="#fff" d="M691.62 6.874L28.38 7C13.812 7 2 18.82 2 33.402V542.6C2 557.18 13.812 569 28.382 569l663.237-.126c14.57 0 26.38-11.82 26.38-26.4V33.275c0-14.582-11.81-26.402-26.38-26.402zM648 504H72V72h576v432z"/><path fill="#DADADA" d="M20.09 286.85c0-8.88 7.24-16.078 16.17-16.078 8.93 0 16.17 7.198 16.17 16.08 0 8.88-7.24 16.078-16.17 16.078-8.93 0-16.17-7.2-16.17-16.08z"/><path fill="#C1BDBD" d="M40.438 279.932c4.724 0 8.973 2.015 11.93 5.226-.7-8.237-7.643-14.707-16.108-14.707-8.93 0-16.17 7.2-16.17 16.08 0 4.184 1.608 7.993 4.24 10.854-.037-.452-.062-.91-.062-1.372 0-8.88 7.24-16.08 16.17-16.08z"/><path fill="none" stroke="#B4B4B4" stroke-miterlimit="10" d="M30.978 291.54v-9.044c0-.556.453-1.005 1.01-1.005h9.097c.558 0 1.01.45 1.01 1.006v9.044c0 .556-.452 1.006-1.01 1.006H31.99c-.56 0-1.012-.45-1.012-1.006z"/></svg>