<svg xmlns="http://www.w3.org/2000/svg" width="400" height="800" viewBox="-50 -100 400 800" enable-background="new -50 -100 400 800"><g><g enable-background="new"><path fill="#939292" d="M-39.306 53.55V22.28c0-1.15.94-2.083 2.096-2.083h4.193c1.157 0 2.097.934 2.097 2.084v31.27c0 1.15-.94 2.083-2.097 2.083h-4.193c-1.157 0-2.096-.934-2.096-2.084z"/><path fill="#ccc" d="M-37.322 55.633c-1.157 0-2.096-.934-2.096-2.084V22.28c0-1.15.938-2.083 2.096-2.083v35.436z"/><path fill="#939292" d="M-39.443 118.77V95.5c0-1.15.938-2.083 2.096-2.083h4.192c1.158 0 2.097.934 2.097 2.084v23.27c0 1.15-.938 2.083-2.097 2.083h-4.192c-1.157 0-2.096-.934-2.096-2.084z"/><path fill="#ccc" d="M-37.458 120.854c-1.157 0-2.097-.933-2.097-2.083V95.503c0-1.15.94-2.083 2.097-2.083v27.434z"/><path fill="#939292" d="M-39.443 182.99v-23.268c0-1.15.938-2.084 2.096-2.084h4.192c1.158 0 2.097.934 2.097 2.084v23.268c0 1.15-.938 2.084-2.097 2.084h-4.192c-1.157 0-2.096-.933-2.096-2.084z"/><path fill="#ccc" d="M-37.458 185.074c-1.157 0-2.097-.934-2.097-2.084v-23.268c0-1.15.94-2.084 2.097-2.084v27.436z"/><path fill="#333" d="M213.805-94.583H270.4c1.158 0 2.097.933 2.097 2.084v4.17c0 1.15-.938 2.082-2.097 2.082h-56.595c-1.16 0-2.097-.932-2.097-2.082v-4.17c0-1.15.938-2.083 2.097-2.083z"/><path fill="#EEF0EF" d="M278.975-92.83H21.847c-30.87 0-55.897 24.885-55.897 55.584v666.322c0 30.697 25.026 55.582 55.897 55.582h257.127c30.87 0 55.897-24.885 55.897-55.582V-37.246c.002-30.698-25.023-55.585-55.895-55.585zm31.017 660.816H-10V0h319.993v567.986z"/><path fill="#fff" d="M278.975-88.83c28.616 0 51.897 23.14 51.897 51.584v666.322c0 28.442-23.28 51.582-51.897 51.582H21.847c-28.616 0-51.897-23.14-51.897-51.582V-37.246c0-28.444 23.28-51.585 51.897-51.585h257.128m0-4H21.847c-30.87 0-55.897 24.885-55.897 55.584v666.322c0 30.697 25.026 55.582 55.897 55.582h257.127c30.87 0 55.897-24.885 55.897-55.582V-37.246c.002-30.698-25.023-55.585-55.895-55.585z"/><path fill="#DEDEDE" d="M116.88 620.963c0-18.42 15.015-33.352 33.537-33.352 18.524 0 33.54 14.933 33.54 33.353 0 18.418-15.017 33.35-33.54 33.35-18.522 0-33.538-14.93-33.538-33.35z"/><path fill="#C8C8C8" d="M159.085 606.613c9.797 0 18.608 4.18 24.74 10.838-1.452-17.083-15.85-30.503-33.408-30.503-18.523 0-33.538 14.93-33.538 33.35 0 8.678 3.334 16.58 8.796 22.512-.08-.94-.13-1.886-.13-2.847 0-18.42 15.015-33.35 33.54-33.35z"/><path fill="none" stroke="#B3B2B2" stroke-width="2" stroke-miterlimit="10" d="M139.464 630.69v-18.76c0-1.15.938-2.083 2.096-2.083h18.866c1.156 0 2.097.932 2.097 2.082v18.76c0 1.15-.94 2.083-2.097 2.083H141.56c-1.157.002-2.096-.93-2.096-2.084z"/><path fill="#ccc" d="M272.468-92.485c0-1.15-.938-2.083-2.096-2.083h-56.596c-1.158 0-2.097.933-2.097 2.083h60.788z"/><circle fill="#CDCCCC" cx="151.33" cy="-61.333" r="6.667"/><path fill="#CDCCCC" d="M118.905-32.047c0-3.837 3.13-6.947 6.987-6.947h51.706c3.86 0 6.986 3.11 6.986 6.947 0 3.838-3.13 6.948-6.986 6.948h-51.706c-3.86.002-6.987-3.11-6.987-6.947z"/><path fill="#9F9E9E" d="M125.314-31.697c0-.96.78-1.737 1.746-1.737h51.008c.964 0 1.745.777 1.745 1.737 0 .96-.78 1.738-1.745 1.738H127.06c-.965 0-1.746-.778-1.746-1.737z"/></g></g></svg>